# Blender 4.5.2 LTS
# www.blender.org
o table
v -6.000000 4.000000 1.400000
v -6.000000 4.000000 1.600000
v -2.000000 4.000000 1.400000
v -2.000000 4.000000 1.600000
v -6.000000 2.000000 1.400000
v -6.000000 2.000000 1.600000
v -2.000000 2.000000 1.400000
v -2.000000 2.000000 1.600000
v -2.333333 4.000000 1.400000
v -5.666667 4.000000 1.400000
v -2.000000 2.366667 1.400000
v -2.000000 3.633333 1.400000
v -5.666667 2.000000 1.400000
v -2.333333 2.000000 1.400000
v -6.000000 3.633333 1.400000
v -6.000000 2.366668 1.400000
v -2.333333 3.633333 1.400000
v -5.666667 3.633333 1.400000
v -2.333333 2.366667 1.400000
v -5.666667 2.366668 1.400000
v -5.900000 3.890001 0.000000
v -5.766665 3.890001 0.000000
v -5.900000 3.743334 0.000000
v -5.766665 3.743334 0.000000
v -2.100000 3.890000 0.000000
v -2.233334 3.890000 0.000000
v -2.100000 3.743333 0.000000
v -2.233334 3.743333 0.000000
v -2.100000 2.110000 0.000000
v -2.100000 2.256667 0.000000
v -2.233334 2.110000 0.000000
v -2.233334 2.256667 0.000000
v -5.900000 2.110000 0.000000
v -5.766666 2.110000 0.000000
v -5.900000 2.256667 0.000000
v -5.766666 2.256667 0.000000
s 0
f 2 3 9
f 4 7 11
f 8 5 13
f 6 1 15
f 20 35 16
f 4 6 8
f 10 21 1
f 20 15 18
f 3 26 9
f 17 10 9
f 11 17 12
f 19 18 17
f 7 30 11
f 14 20 19
f 19 16 11
f 24 21 22
f 15 24 18
f 1 23 15
f 18 22 10
f 27 26 25
f 17 27 12
f 12 25 3
f 9 28 17
f 29 32 30
f 19 31 14
f 11 32 19
f 14 29 7
f 34 35 36
f 16 33 5
f 13 36 20
f 5 34 13
f 10 1 2
f 2 4 3
f 9 10 2
f 12 3 4
f 4 8 7
f 11 12 4
f 14 7 8
f 8 6 5
f 13 14 8
f 16 5 6
f 6 2 1
f 15 16 6
f 20 36 35
f 4 2 6
f 10 22 21
f 20 16 15
f 3 25 26
f 17 18 10
f 11 19 17
f 19 20 18
f 7 29 30
f 14 13 20
f 19 20 16
f 24 23 21
f 15 23 24
f 1 21 23
f 18 24 22
f 27 28 26
f 17 28 27
f 12 27 25
f 9 26 28
f 29 31 32
f 19 32 31
f 11 30 32
f 14 31 29
f 34 33 35
f 16 35 33
f 13 34 36
f 5 33 34
