# Blender 4.5.2 LTS
# www.blender.org
o walls
v -8.000000 1.000001 0.000000
v -8.000000 1.000001 4.000000
v -1.000000 1.000000 0.000000
v -1.000000 1.000000 4.000000
v -8.000000 0.000001 0.000000
v -8.000000 0.000001 4.000000
v -1.000000 0.000000 0.000000
v -1.000000 0.000000 4.000000
v 0.000000 1.000000 0.000000
v 0.000000 1.000000 4.000000
v 0.000000 0.000000 0.000000
v 0.000000 0.000000 4.000000
v -1.000000 6.000000 0.000000
v -1.000000 6.000000 4.000000
v 0.000000 6.000000 0.000000
v 0.000000 6.000000 4.000000
s 0
f 2 3 1
f 7 12 8
f 8 5 7
f 6 1 5
f 7 1 3
f 4 6 8
f 10 11 9
f 3 11 7
f 8 10 4
f 10 14 4
f 14 15 13
f 3 15 9
f 4 13 3
f 9 16 10
f 2 4 3
f 7 11 12
f 8 6 5
f 6 2 1
f 7 5 1
f 4 2 6
f 10 12 11
f 3 9 11
f 8 12 10
f 10 16 14
f 14 16 15
f 3 13 15
f 4 14 13
f 9 15 16
