# Blender 4.5.2 LTS
# www.blender.org
o Cube.001
v -8.000000 1.000000 0.000000
v -8.000000 1.000000 4.000000
v -1.000000 1.000000 0.000000
v -1.000000 1.000000 4.000000
v -8.000000 0.000000 0.000000
v -8.000000 0.000000 4.000000
v -1.000000 0.000000 0.000000
v -1.000000 0.000000 4.000000
v 0.000000 1.000000 0.000000
v 0.000000 1.000000 4.000000
v 0.000000 0.000000 0.000000
v 0.000000 0.000000 4.000000
v -1.000000 6.000000 0.000000
v -1.000000 6.000000 4.000000
v 0.000000 6.000000 0.000000
v 0.000000 6.000000 4.000000
s 0
f 1 2 4 3
f 8 7 11 12
f 7 8 6 5
f 5 6 2 1
f 3 7 5 1
f 8 4 2 6
f 9 10 12 11
f 7 3 9 11
f 4 8 12 10
f 4 10 16 14
f 13 14 16 15
f 9 3 13 15
f 3 4 14 13
f 10 9 15 16
